<svg xmlns="http://www.w3.org/2000/svg" width="1189.974" height="573.943" viewBox="0 0 314.847 151.856"><g style="fill:#000;fill-opacity:1"><path d="M727.696 7397.719c-6.833 10.63-19.54 32.336-19.54 33.3.799.01 24.195.196 39.39.164l9.734-17.094c35.15-61.725 79.255-106.99 114.188-120.513l9.136-3.536 9.813 3.054c5.398 1.68 14.005 5.381 19.129 8.227l9.315 5.173-5.581 4.197c-20.44 15.375-49.905 50.238-73.551 87.028-6.832 10.63-19.38 32.336-19.38 33.3 2.307-.001 9.042.087 19.88.01l19.028.028 9.808-16.537c17.405-29.347 40.03-60.116 62.214-83.684l6.697-7.116 3.39 2.846c11.386 9.56 33.65 42.843 53.072 79.34l12.686 23.837-12.686 23.837c-42.97 80.745-75.254 111.724-128.19 117.03-2.02.203-4.353.222-6.668.233.019 1.14-.002 2.25-.002 2.642 2.158.083 35.24.39 49.87-1.42 47.322-5.859 80.22-36.249 122.48-113.651l15.653-28.671-14.801-26.684c-25.486-45.944-40.623-67.192-61.233-85.95l-11.859-10.795 7.427-4.632c10.964-6.838 20.308-10.395 25.502-10.324 19.081.263 57.785 20.905 86.916 68.296 1.563 2.542 2.967 4.374 3.685 5.328.718-.954 2.126-2.784 3.685-5.328 11.862-19.35 37.232-45.855 53.079-55.452 15.843-9.595 29.44-13.666 43.8-15.26 3.596-.4 6.431-.55 12.117-.623.108-.601.196-1.454.164-2.18-8.277-.698-43.083-1.638-64.297 3.416-12.937 3.082-28.799 11.165-39.384 19.291l-9.164 7.035-9.164-7.035c-23.11-17.741-42.232-22.667-82.804-22.659-14.99 0-33.03.707-43.133 4.407l-10.37 3.798-8.794-2.823c-17.583-5.643-33.412-5.554-48.173-5.668-14.481-.112-30.551.02-38.813 2.777-37.327 12.454-71.796 42.96-114.272 109.046zm527.112-110.193c-45.663 6.391-77.895 37.548-121.168 115.558l-14.818 26.713 14.815 26.654c25.568 46 40.676 67.192 61.252 85.921l11.86 10.794-7.428 4.632c-10.964 6.838-24.222 11.631-29.115 10.525-27.819-6.29-62.803-35.057-83.303-68.497-1.754-2.86-2.77-4.24-3.635-5.546-.764 1.305-1.981 2.686-3.735 5.546-11.862 19.35-37.232 45.855-53.078 55.452-15.844 9.595-33.83 14.95-55.125 15.556-.16 1.006-.11 1.462-.11 2.434 15.507.158 45.956 1.332 63.45-3.342 19.176-5.123 28.799-11.165 39.384-19.292l9.164-7.035 9.164 7.035c23.11 17.742 38.52 22.467 81.9 22.458 32.014-.01 33.935-.506 44.037-4.206l10.37-3.797 8.755 2.81c21.358 6.854 73.29 7.565 92.09 1.261 32.587-10.927 72.304-49.988 109.207-107.404 6.832-10.63 19.415-32.159 19.415-33.122-5.003.107-8.156.167-19.276.243l-20.128.149-9.596 16.36c-26.786 45.671-60.43 85.88-89.13 106.521-13.102 9.423-28.28 16.48-35.148 16.34-5.907-.119-20.852-5.77-30.69-11.603l-6.574-3.898 8.396-6.358c18.865-14.287 47.627-48.717 70.7-84.63 6.838-10.646 19.626-32.34 19.626-33.301-4.684.036-9.15.308-19.915.243l-19.703.326-9.595 16.36c-17.262 29.432-39.782 59.69-61.965 83.259l-6.698 7.115-3.39-2.846c-11.386-9.56-33.65-42.843-53.072-79.34l-12.685-23.837 12.685-23.837c42.97-80.745 78.513-111.714 124.202-116.88 1.973-.223 7.922-.41 10.937-.498.14-.868.111-1.372.314-2.247-5.194-.436-40.216-.488-52.643 1.251" style="fill:#000;fill-opacity:1;stroke-width:.942004" transform="matrix(.35278 0 0 -.35278 -224.69 2696.915)"/></g></svg>
